{"title":"The Protector 2 HC DVDRIP x264 AC3 TiTAN","uid":9543874,"size":1287658811,"categoryP":"video","categoryS":"movies","magnet":"?xt=urn:btih:9b7b53d7809eef0992620646edab8a428af6f089&amp;dn=The+Protector+2+HC+DVDRIP+x264+AC3+TiTAN&amp;tr=udp%3A%2F%2Ftracker.openbittorrent.com%3A80&amp;tr=udp%3A%2F%2Fopen.demonii.com%3A1337&amp;tr=udp%3A%2F%2Ftracker.coppersurfer.tk%3A6969&amp;tr=udp%3A%2F%2Fexodus.desync.com%3A6969","seeders":4,"leechers":1,"uploader":".BONE.","files":2,"time":1391091956,"description":"The Protector 2 AKA Tom yum goong 2\n &lt;a href=&quot;\nhttp://www.imdb.com/title/tt1925518/&quot; rel=&quot;nofollow&quot; target=&quot;_NEW&quot;&gt;\nhttp://www.imdb.com/title/tt1925518/&lt;/a&gt;\n\nGeneral\n\nAUDIO..THAI\n\nNote: Has HC ENG subs. thought a few people might want this so i figured i would share.. personally i think Tony Jaa is the best action star out there. Enjoy\n\nFormat : Matroska\nFormat version : Version 2\nFile size : 1.20 GiB\nDuration : 1h 40mn\nOverall bit rate : 1 715 Kbps\nEncoded date : UTC 2014-01-29 22:09:45\nWriting application : mkvmerge v6.5.0 ('Isn't she lovely') built on Oct 20 2013 12:50:05\nWriting library : libebml v1.3.0 + libmatroska v1.4.1\n\nVideo\nID : 1\nFormat : AVC\nFormat/Info : Advanced Video Codec\nFormat profile : &lt;a class=&quot;__cf_email__&quot; href=&quot;/cdn-cgi/l/email-protection&quot; data-cfemail=&quot;632b0a040b232f514d52&quot;&gt;[email&amp;#160;protected]&lt;/a&gt;&lt;script cf-hash='f9e31' type=&quot;text/javascript&quot;&gt;\n/* &lt;![CDATA[ */!function(){try{var t=&quot;currentScript&quot;in document?document.currentScript:function(){for(var t=document.getElementsByTagName(&quot;script&quot;),e=t.length;e--;)if(t[e].getAttribute(&quot;cf-hash&quot;))return t[e]}();if(t&amp;&amp;t.previousSibling){var e,r,n,i,c=t.previousSibling,a=c.getAttribute(&quot;data-cfemail&quot;);if(a){for(e=&quot;&quot;,r=parseInt(a.substr(0,2),16),n=2;a.length-n;n+=2)i=parseInt(a.substr(n,2),16)^r,e+=String.fromCharCode(i);e=document.createTextNode(e),c.parentNode.replaceChild(e,c)}}}catch(u){}}();/* ]]&gt; */&lt;/script&gt;\nFormat settings, CABAC : Yes\nFormat settings, ReFrames : 4 frames\nCodec ID : V_MPEG4/ISO/AVC\nDuration : 1h 40mn\nBit rate : 1 392 Kbps\nWidth : 704 pixels\nHeight : 288 pixels\nDisplay aspect ratio : 2.40:1\nFrame rate mode : Constant\nFrame rate : 25.000 fps\nColor space : YUV\nChroma subsampling : 4:2:0\nBit depth : 8 bits\nScan type : Progressive\nBits/(Pixel*Frame) : 0.275\nStream size : 974 MiB (79%)\nWriting library : x264 core 138 r2358 9e941d1\nDefault : Yes\nForced : No\n\nAudio\nID : 2\nFormat : AC-3\nFormat/Info : Audio Coding 3\nMode extension : CM (complete main)\nFormat settings, Endianness : Big\nCodec ID : A_AC3\nDuration : 1h 40mn\nBit rate mode : Constant\nBit rate : 320 Kbps\nChannel(s) : 6 channels\nChannel positions : Front: L C R, Side: L R, LFE\nSampling rate : 48.0 KHz\nBit depth : 16 bits\nCompression mode : Lossy\nStream size : 229 MiB (19%)\nLanguage : Thai\nDefault : Yes\nForced : No\n\nText\nID : 3\nFormat : VobSub\nMuxing mode : zlib\nCodec ID : S_VOBSUB\nCodec ID/Info : The same subtitle format used on DVDs\nLanguage : English\nDefault : Yes\nForced : Yes","torrent":{"xt":"urn:btih:9b7b53d7809eef0992620646edab8a428af6f089","amp;dn":"The+Protector+2+HC+DVDRIP+x264+AC3+TiTAN","amp;tr":["udp%3A%2F%2Ftracker.openbittorrent.com%3A80","udp%3A%2F%2Fopen.demonii.com%3A1337","udp%3A%2F%2Ftracker.coppersurfer.tk%3A6969","udp%3A%2F%2Fexodus.desync.com%3A6969"],"infoHash":"9b7b53d7809eef0992620646edab8a428af6f089","infoHashBuffer":{"type":"Buffer","data":[155,123,83,215,128,158,239,9,146,98,6,70,237,171,138,66,138,246,240,137]},"announce":[],"urlList":[]}}